<svg width="414" height="204" viewBox="0 0 414 204" fill="none" xmlns="http://www.w3.org/2000/svg"> <path fill-rule="evenodd" clip-rule="evenodd" d="M126.673 442.723C82.2198 369.415 -30.6272 307.678 2.62756 228.658C36.6792 147.745 168.539 199.851 246.149 158.824C321.724 118.872 349.603 -3.86828 434.997 0.0937359C522.738 4.16461 586.955 93.6797 617.451 176.051C644.758 249.813 611.712 327.127 583.209 400.434C557.942 465.419 523.79 524.61 466.484 564.326C401.2 609.571 322.551 659.678 247.764 632.916C174.202 606.591 167.184 509.53 126.673 442.723Z" fill="#34B663"/> <path fill-rule="evenodd" clip-rule="evenodd" d="M126.673 442.723C82.2198 369.415 -30.6272 307.678 2.62756 228.658C36.6792 147.745 168.539 199.851 246.149 158.824C321.724 118.872 349.603 -3.86828 434.997 0.0937359C522.738 4.16461 586.955 93.6797 617.451 176.051C644.758 249.813 611.712 327.127 583.209 400.434C557.942 465.419 523.79 524.61 466.484 564.326C401.2 609.571 322.551 659.678 247.764 632.916C174.202 606.591 167.184 509.53 126.673 442.723Z" fill="#34B663"/> <path fill-rule="evenodd" clip-rule="evenodd" d="M126.673 442.723C82.2198 369.415 -30.6272 307.678 2.62756 228.658C36.6792 147.745 168.539 199.851 246.149 158.824C321.724 118.872 349.603 -3.86828 434.997 0.0937359C522.738 4.16461 586.955 93.6797 617.451 176.051C644.758 249.813 611.712 327.127 583.209 400.434C557.942 465.419 523.79 524.61 466.484 564.326C401.2 609.571 322.551 659.678 247.764 632.916C174.202 606.591 167.184 509.53 126.673 442.723Z" fill="#297C57"/> </svg>