<svg width="414" height="111" viewBox="0 0 414 111" fill="none" xmlns="http://www.w3.org/2000/svg">
<path fill-rule="evenodd" clip-rule="evenodd" d="M364.8 306C379.293 221.501 461.663 122.702 401.762 61.3678C340.425 -1.4363 236.837 95.3698 149.591 85.6404C64.6319 76.1661 -6.29036 -27.8172 -84.2905 7.16504C-164.435 43.1088 -191.378 149.931 -189.563 237.747C-187.938 316.384 -128.856 376.208 -75.4698 433.969C-28.1451 485.172 25.3235 527.728 93.1977 543.679C170.522 561.85 262.063 579.647 321.837 527.338C380.633 475.886 351.592 383.005 364.8 306Z" fill="#34B663"/>
<path fill-rule="evenodd" clip-rule="evenodd" d="M364.8 306C379.293 221.501 461.663 122.702 401.762 61.3678C340.425 -1.4363 236.837 95.3698 149.591 85.6404C64.6319 76.1661 -6.29036 -27.8172 -84.2905 7.16504C-164.435 43.1088 -191.378 149.931 -189.563 237.747C-187.938 316.384 -128.856 376.208 -75.4698 433.969C-28.1451 485.172 25.3235 527.728 93.1977 543.679C170.522 561.85 262.063 579.647 321.837 527.338C380.633 475.886 351.592 383.005 364.8 306Z" fill="#34B663"/>
<path fill-rule="evenodd" clip-rule="evenodd" d="M364.8 306C379.293 221.501 461.663 122.702 401.762 61.3678C340.425 -1.4363 236.837 95.3698 149.591 85.6404C64.6319 76.1661 -6.29036 -27.8172 -84.2905 7.16504C-164.435 43.1088 -191.378 149.931 -189.563 237.747C-187.938 316.384 -128.856 376.208 -75.4698 433.969C-28.1451 485.172 25.3235 527.728 93.1977 543.679C170.522 561.85 262.063 579.647 321.837 527.338C380.633 475.886 351.592 383.005 364.8 306Z" fill="#34B663"/>
</svg>
