<svg width="632" height="641" viewBox="0 0 632 641" fill="none" xmlns="http://www.w3.org/2000/svg">
<path fill-rule="evenodd" clip-rule="evenodd" d="M130.086 442.723C85.6333 369.416 -27.2138 307.678 6.04101 228.658C40.0926 147.745 171.952 199.851 249.562 158.824C325.138 118.872 353.016 -3.86814 438.41 0.0938579C526.151 4.16475 590.369 93.6798 620.864 176.051C648.172 249.813 615.125 327.127 586.622 400.435C561.356 465.419 527.204 524.61 469.898 564.326C404.613 609.571 325.964 659.678 251.178 632.916C177.616 606.591 170.597 509.53 130.086 442.723Z" fill="#34B663"/>
<path fill-rule="evenodd" clip-rule="evenodd" d="M130.086 442.723C85.6333 369.416 -27.2138 307.678 6.04101 228.658C40.0926 147.745 171.952 199.851 249.562 158.824C325.138 118.872 353.016 -3.86814 438.41 0.0938579C526.151 4.16475 590.369 93.6798 620.864 176.051C648.172 249.813 615.125 327.127 586.622 400.435C561.356 465.419 527.204 524.61 469.898 564.326C404.613 609.571 325.964 659.678 251.178 632.916C177.616 606.591 170.597 509.53 130.086 442.723Z" fill="#34B663"/>
<path fill-rule="evenodd" clip-rule="evenodd" d="M130.086 442.723C85.6333 369.416 -27.2138 307.678 6.04101 228.658C40.0926 147.745 171.952 199.851 249.562 158.824C325.138 118.872 353.016 -3.86814 438.41 0.0938579C526.151 4.16475 590.369 93.6798 620.864 176.051C648.172 249.813 615.125 327.127 586.622 400.435C561.356 465.419 527.204 524.61 469.898 564.326C404.613 609.571 325.964 659.678 251.178 632.916C177.616 606.591 170.597 509.53 130.086 442.723Z" fill="#34B663"/>
</svg>
